# xmcd
#
# Track frame offsets:
#	300
#	22418
#	39668
#	57239
#	74789
#	89264
#	108989
#	123614
#	141464
#	156536
#	174754
#	188929
#	213604
#	226579
#	241354
#	257254
#	275404
#
# Disc length: 3916 seconds
#
# Revision: 2
# Processed by: cddbd v1.5.2PL0 Copyright (c) Steve Scherf et al.
# Submitted via: audiograbber 1.83.01
#
DISCID=020f4811
DTITLE=Karaoke Kurrents - Karaoke Kurrents Dec. 2009 Disc 405
DYEAR=1900
DGENRE=
TTITLE0=Taylor Swift - Fifteen
TTITLE1=Taylor Swift - You Belong With Me
TTITLE2=Taylor Swift - Love Story
TTITLE3=Taylor Swift - White Horse
TTITLE4=Taylor Swift - Crazier
TTITLE5=Taylor Swift - Breathe
TTITLE6=Miley Cyrus - Hoedown Throwdown
TTITLE7=Kellie Pickler - Best Days Of Your Life
TTITLE8=Jason Aldean - Big Green Tractor
TTITLE9=David Nail - Red Light
TTITLE10=Josh Thompson - Beer On The Table
TTITLE11=Brad Paisley - Welcome To The Future
TTITLE12=Randy Houser - Boots On
TTITLE13=Kenny Chesney - Out Last Night
TTITLE14=Chris Young - Gettin' You Home
TTITLE15=Jimmy Wayne - I'll Just Hold On
TTITLE16=Blake Shelton - I'll Be That
EXTD=
EXTT0=
EXTT1=
EXTT2=
EXTT3=
EXTT4=
EXTT5=
EXTT6=
EXTT7=
EXTT8=
EXTT9=
EXTT10=
EXTT11=
EXTT12=
EXTT13=
EXTT14=
EXTT15=
EXTT16=
PLAYORDER=
